<?xml version="1.0" standalone="no"?>
<!DOCTYPE svg PUBLIC "-//W3C//DTD SVG 20010904//EN"
 "http://www.w3.org/TR/2001/REC-SVG-20010904/DTD/svg10.dtd">
<svg version="1.0" xmlns="http://www.w3.org/2000/svg"
 width="2000.000000pt" height="2048.000000pt" viewBox="0 0 2000.000000 2048.000000"
 preserveAspectRatio="xMidYMid meet">
<metadata>
Created by potrace 1.16, written by Peter Selinger 2001-2019
</metadata>
<g transform="translate(0.000000,2048.000000) scale(0.100000,-0.100000)"
fill="#000000" stroke="none">
<path d="M3875 18690 c-496 -5 -522 -6 -555 -25 -32 -19 -52 -20 -265 -19
-159 1 -266 7 -345 19 -66 10 -208 19 -332 22 l-217 5 -63 -32 c-34 -18 -71
-43 -81 -56 -10 -14 -29 -24 -43 -24 -58 0 -82 -73 -44 -135 18 -29 20 -57 26
-316 5 -234 9 -291 23 -324 12 -28 15 -50 10 -75 -15 -65 -29 -822 -29 -1543
l0 -718 -25 -59 -25 -59 0 -394 c0 -370 1 -396 19 -418 10 -13 31 -48 46 -78
l27 -55 -11 -117 c-7 -77 -11 -483 -11 -1196 0 -593 -4 -1095 -9 -1116 -5 -21
-21 -49 -36 -63 -23 -21 -27 -31 -22 -61 8 -50 24 -62 86 -70 32 -3 64 -15 80
-27 14 -12 57 -37 95 -56 l68 -34 187 1 c102 0 263 8 356 17 187 18 901 41
1005 33 36 -3 85 -15 110 -26 l45 -21 3693 0 3693 0 62 26 c59 25 69 27 232
25 181 -2 395 -15 485 -31 30 -5 168 -14 305 -20 274 -13 545 -2 665 25 36 8
142 19 235 25 245 13 305 20 344 36 47 20 64 18 89 -11 28 -32 37 -31 89 4 23
15 61 31 85 35 23 4 56 15 73 26 16 10 57 23 90 29 33 6 72 20 86 31 15 10 40
22 55 26 16 4 43 19 59 34 17 16 47 30 70 33 21 4 52 16 67 27 15 11 50 25 78
31 28 6 63 21 78 33 15 13 42 26 60 29 19 4 47 18 64 32 16 14 40 25 53 25 13
0 37 12 55 26 17 14 49 30 72 36 22 5 54 20 70 33 16 14 41 25 55 25 15 0 40
11 57 23 17 13 43 27 59 31 15 3 60 22 100 41 63 30 95 57 238 197 90 90 202
206 248 258 46 52 120 131 165 176 121 120 184 191 207 232 34 63 64 110 81
129 24 27 48 91 48 130 0 19 9 48 21 64 13 19 25 58 31 107 7 49 18 86 31 104
14 18 23 52 28 94 5 47 13 72 29 89 16 17 24 42 29 87 6 54 13 71 52 123 62
82 58 70 75 202 20 163 55 323 77 355 17 25 18 47 14 300 -6 333 -21 559 -43
639 -3 9 -18 22 -34 29 -55 23 -73 69 -78 197 -4 92 -2 117 12 137 21 33 20
71 -5 126 -26 58 -47 80 -75 80 -52 0 -55 5 -48 104 9 127 -10 191 -79 268
-86 95 -104 121 -117 176 -15 63 -62 125 -111 146 -41 17 -54 31 -63 70 -4 16
-18 42 -31 57 -16 20 -25 47 -30 91 -5 37 -15 73 -27 88 -10 14 -36 52 -57 86
-29 46 -58 75 -117 116 -44 31 -88 65 -98 77 -11 12 -25 21 -32 21 -7 0 -26
11 -42 25 -17 14 -34 25 -40 25 -6 0 -29 16 -52 35 -23 19 -47 35 -54 35 -34
0 -239 179 -267 233 -13 24 -33 44 -57 55 -20 9 -49 25 -65 35 -15 10 -55 22
-90 27 -58 8 -65 12 -112 63 -52 56 -71 65 -235 111 -32 9 -65 26 -77 40 -15
17 -36 26 -74 31 -30 4 -72 18 -94 30 -22 13 -65 26 -95 30 -30 3 -69 15 -87
26 -18 11 -63 25 -100 31 -37 6 -88 20 -113 33 -25 12 -71 25 -103 29 -32 3
-77 16 -100 27 -22 12 -74 26 -115 31 -41 5 -92 18 -114 29 -21 11 -78 25
-126 30 -48 6 -105 20 -126 31 -22 11 -77 26 -122 33 -46 8 -105 21 -131 30
-26 9 -95 20 -153 25 -84 6 -115 13 -154 34 l-49 26 -4111 -2 c-2261 -2 -4345
-5 -4631 -8z m8715 -1745 c30 -9 96 -23 145 -32 70 -12 97 -22 122 -44 35 -30
115 -46 178 -36 22 4 45 -1 69 -14 20 -10 57 -24 83 -29 27 -6 59 -22 73 -35
28 -26 122 -68 194 -86 26 -6 50 -18 53 -25 6 -15 117 -94 133 -94 5 0 24 -13
42 -29 77 -69 154 -131 178 -143 27 -14 277 -266 316 -320 13 -17 36 -68 51
-112 24 -68 37 -90 86 -139 31 -33 62 -67 67 -77 15 -29 12 -108 -6 -135 -19
-29 -15 -64 17 -163 13 -39 30 -68 44 -78 13 -8 35 -32 49 -52 22 -32 24 -43
17 -72 -10 -38 -33 -325 -29 -352 2 -9 -11 -26 -31 -40 -25 -18 -39 -39 -57
-92 -29 -85 -30 -101 -3 -151 15 -28 20 -50 16 -78 -6 -47 -25 -69 -93 -108
-56 -32 -59 -36 -70 -114 -6 -43 -15 -59 -69 -115 -34 -36 -93 -101 -131 -145
-77 -90 -137 -155 -239 -259 -67 -67 -114 -97 -179 -111 -16 -3 -55 -33 -93
-72 l-65 -65 -51 7 c-110 15 -266 -1 -402 -41 -44 -13 -122 -29 -172 -34 -51
-6 -121 -18 -155 -27 -56 -14 -186 -17 -1123 -23 -583 -4 -1719 -8 -2525 -9
-1656 -1 -2352 -12 -2413 -38 -35 -15 -42 -15 -85 0 -26 9 -81 20 -122 23 -49
5 -84 13 -103 26 -24 18 -33 18 -80 8 -28 -6 -135 -15 -237 -20 -102 -4 -197
-13 -213 -19 -38 -15 -205 -11 -246 6 -28 12 -157 14 -770 13 -405 -1 -744 1
-754 5 -9 4 -19 17 -21 29 -3 11 -7 210 -11 441 -3 231 -10 611 -15 845 -14
637 -13 2046 2 2073 6 12 33 43 60 69 53 51 43 48 253 63 44 3 1871 6 4060 7
3173 1 3988 3 4020 13 56 18 171 18 235 0z"/>
<path d="M13475 10804 c-22 -8 -94 -19 -160 -24 -76 -6 -2177 -10 -5668 -10
-5521 0 -5548 0 -5604 -20 -32 -11 -64 -27 -72 -35 -8 -8 -23 -66 -34 -132
-16 -102 -19 -190 -24 -658 l-5 -540 37 -47 c63 -80 145 -116 198 -86 16 9
134 13 452 14 237 1 545 7 685 13 196 9 360 9 710 0 323 -8 694 -9 1280 -3
917 9 1252 10 2638 0 596 -4 961 -10 972 -16 23 -12 757 -13 1030 0 835 37
1178 36 1555 -6 107 -12 298 -17 810 -20 415 -3 681 -9 700 -15 17 -6 118 -13
225 -16 180 -5 198 -7 235 -28 31 -18 60 -24 132 -28 81 -4 96 -8 123 -31 26
-21 42 -26 85 -26 47 0 59 -4 85 -30 19 -19 41 -30 59 -30 16 0 44 -13 66 -30
21 -16 49 -30 63 -30 13 0 40 -13 59 -30 18 -16 45 -30 58 -30 15 0 36 -12 52
-30 14 -16 32 -30 39 -30 7 0 25 -11 41 -24 15 -13 37 -26 49 -30 12 -3 33
-19 48 -34 59 -61 177 -152 195 -152 13 0 244 -230 268 -267 50 -79 129 -174
218 -263 14 -14 25 -32 25 -41 0 -9 14 -33 30 -54 17 -21 30 -42 30 -46 0 -5
14 -21 30 -36 19 -17 30 -36 30 -53 0 -16 12 -39 30 -58 17 -18 30 -42 30 -56
0 -13 14 -40 30 -61 17 -21 30 -49 30 -63 0 -14 12 -38 26 -53 16 -17 28 -42
31 -70 3 -25 15 -55 28 -69 16 -17 25 -44 30 -85 5 -39 15 -69 29 -86 18 -21
24 -44 29 -109 5 -65 11 -87 30 -110 22 -25 24 -40 30 -164 6 -113 11 -146 32
-196 25 -59 25 -63 25 -345 0 -267 -1 -288 -20 -326 -23 -44 -39 -149 -40
-253 0 -58 -4 -76 -25 -106 -19 -28 -26 -54 -31 -115 -5 -65 -11 -85 -30 -105
-18 -19 -26 -43 -31 -90 -5 -50 -11 -69 -28 -82 -14 -11 -24 -33 -28 -59 -3
-25 -15 -52 -31 -68 -15 -15 -26 -39 -26 -54 0 -15 -13 -41 -30 -60 -17 -20
-30 -46 -30 -61 0 -16 -11 -36 -29 -52 -17 -15 -33 -40 -37 -58 -9 -44 -22
-56 -60 -56 -27 0 -36 -6 -49 -29 -8 -16 -23 -32 -33 -35 -11 -4 -24 -17 -30
-30 -6 -13 -20 -27 -31 -31 -12 -3 -21 -12 -21 -18 0 -7 -51 -64 -112 -127
-62 -63 -151 -158 -200 -211 -76 -84 -93 -98 -134 -108 -26 -7 -61 -22 -77
-33 -16 -12 -49 -25 -74 -29 -24 -5 -55 -17 -69 -28 -13 -10 -46 -24 -74 -31
-27 -6 -54 -18 -61 -26 -6 -8 -37 -21 -68 -30 -31 -9 -65 -25 -76 -35 -12 -10
-36 -22 -55 -25 -19 -4 -51 -17 -70 -29 -19 -13 -53 -28 -76 -34 -22 -6 -49
-20 -58 -30 -10 -11 -32 -23 -50 -26 -17 -4 -48 -18 -69 -32 -29 -21 -56 -27
-129 -34 -51 -5 -119 -18 -153 -28 -72 -24 47 -23 -1675 -16 -701 3 -1894 1
-2650 -4 -1330 -8 -1377 -8 -1432 10 -45 15 -63 17 -85 8 -17 -7 -192 -14
-463 -20 -465 -9 -645 -21 -691 -44 -21 -11 -64 -15 -168 -15 -134 0 -141 1
-169 25 l-29 24 -264 3 c-204 3 -271 7 -296 18 -29 12 -49 12 -170 -3 -172
-22 -569 -35 -943 -32 l-285 2 -6 52 c-4 28 -19 77 -34 107 -26 54 -27 61 -20
143 23 254 24 890 2 1096 -33 309 -31 520 9 778 12 76 18 209 21 527 5 422 5
425 -16 444 -12 11 -21 26 -21 35 0 9 27 43 60 76 l60 60 523 -2 c394 -2 558
-6 667 -18 263 -28 389 -30 2380 -30 360 0 1103 0 1650 0 l995 0 95 25 95 25
580 0 c546 0 585 -1 660 -20 73 -18 116 -20 515 -21 239 0 638 -5 885 -10 505
-10 549 -9 622 11 28 8 67 15 86 15 57 0 61 13 67 204 5 149 8 177 28 220 35
78 38 115 10 156 -14 20 -27 46 -30 58 -10 39 30 262 57 317 14 28 25 57 25
65 0 8 11 38 25 65 20 42 24 65 25 141 0 97 -3 104 -53 104 -12 0 -35 14 -53
31 -26 25 -45 32 -120 44 -49 8 -112 21 -141 29 -80 22 -303 22 -473 0 -138
-18 -227 -19 -1775 -19 -1526 1 -1637 2 -1746 19 -95 15 -153 17 -325 13 -115
-3 -263 -12 -329 -21 -106 -13 -524 -15 -3594 -16 -2377 0 -3478 -3 -3486 -10
-34 -28 -37 -207 -32 -1740 4 -1216 6 -2306 5 -3170 0 -47 0 -142 1 -211 0
-70 -7 -205 -15 -300 -8 -96 -18 -330 -21 -520 l-6 -346 24 -34 c32 -45 38
-49 82 -49 21 0 59 -11 86 -24 l48 -25 601 -2 601 -1 38 23 38 24 4920 0 4920
0 69 -23 c57 -18 90 -22 200 -22 125 0 134 1 166 25 19 14 41 25 49 25 8 0 29
13 46 29 16 16 59 41 95 57 63 26 70 27 282 29 l217 2 58 39 c32 21 64 45 71
54 9 10 42 17 111 21 73 5 115 14 157 32 33 14 81 28 108 31 27 3 63 15 81 26
18 11 59 25 91 31 32 6 79 22 104 35 24 13 57 24 71 24 14 0 50 13 80 29 30
15 70 31 90 35 19 3 51 17 69 31 19 14 42 25 53 25 21 0 57 18 72 35 6 7 31
20 58 29 26 10 47 22 47 27 0 5 19 19 43 30 70 33 121 71 246 183 76 69 131
131 131 147 0 5 19 18 43 30 45 23 70 42 160 122 33 29 66 56 75 61 10 5 58
44 107 86 90 77 164 156 276 293 33 39 81 96 107 125 26 29 53 65 61 80 8 15
25 40 37 55 13 16 24 34 24 41 0 7 14 25 30 41 17 16 30 34 30 40 0 12 56 104
89 146 11 14 23 39 27 55 3 16 17 40 29 54 13 14 28 43 34 66 6 22 20 49 31
59 11 10 22 34 26 54 4 20 17 47 29 61 13 14 26 41 30 60 4 19 17 51 30 70 13
19 28 55 34 79 5 24 19 57 30 72 11 15 24 46 27 69 4 23 17 54 29 68 12 15 26
43 30 62 4 19 21 50 37 69 39 44 48 71 48 137 0 31 5 65 11 76 6 12 17 65 24
118 9 67 19 107 33 126 24 33 57 160 66 253 5 51 12 70 36 97 l30 35 -1 427
c0 235 -4 461 -9 502 -9 79 -43 187 -72 230 -10 14 -23 41 -29 60 -7 19 -20
44 -29 55 -11 13 -20 46 -25 95 -4 49 -14 88 -30 115 -14 25 -25 65 -29 110
-5 49 -14 81 -30 105 -15 22 -26 56 -29 92 -3 34 -15 74 -30 100 -14 24 -28
66 -32 93 -4 28 -15 59 -26 71 -10 11 -24 47 -30 79 -6 32 -21 72 -34 89 -12
17 -26 49 -30 71 -3 22 -16 50 -27 62 -11 11 -24 41 -29 65 -6 23 -19 52 -29
63 -10 11 -23 38 -29 61 -6 22 -20 49 -30 58 -11 10 -23 31 -26 47 -4 15 -20
45 -36 65 -16 20 -29 45 -29 55 0 10 -13 33 -29 51 -15 18 -31 43 -35 55 -9
29 -74 127 -88 132 -5 2 -17 20 -27 40 -20 45 -39 72 -121 171 -36 43 -86 107
-112 142 -90 121 -324 347 -474 458 -26 19 -56 44 -68 55 -30 29 -100 81 -133
100 -15 9 -46 29 -68 46 -65 48 -99 69 -116 69 -8 0 -26 11 -38 24 -13 14 -37
30 -54 37 -18 7 -41 20 -52 29 -11 10 -31 21 -44 25 -13 4 -44 20 -69 36 -25
16 -52 29 -59 29 -7 0 -30 11 -51 24 -20 14 -50 28 -67 32 -16 3 -46 17 -65
30 -20 13 -57 28 -84 33 -26 5 -57 18 -69 29 -12 11 -40 23 -62 27 -22 4 -56
18 -75 30 -19 13 -57 27 -85 31 -29 4 -62 16 -77 30 -18 14 -48 25 -83 29 -31
4 -66 16 -80 27 -14 11 -53 26 -86 34 -33 8 -72 23 -87 33 -15 11 -48 22 -74
26 -26 3 -58 15 -72 26 -13 11 -51 24 -82 30 -35 6 -70 21 -87 35 -16 13 -37
24 -48 24 -36 0 -59 19 -59 49 0 37 -23 55 -68 53 -91 -4 -392 20 -479 38
-112 23 -98 23 -148 4z"/>
</g>
</svg>
