<svg xmlns="http://www.w3.org/2000/svg" viewBox="0 0 220 64">
  <path fill-rule="evenodd" d="
    M12 9 h6 v46 h-6 z
    M18 9 h10 a6 6 0 0 1 6 6 v7 a6 6 0 0 1 -6 6 h-10 z
    M18 34 h12 a7 7 0 0 1 7 7 v7 a7 7 0 0 1 -7 7 h-12 z
    M0 9 h12 v7 h-12 z
    M0 28 h12 v6 h-12 z
    M0 49 h12 v6 h-12 z
    M22 13 h3 a5 5 0 0 1 5 5 v2 a5 5 0 0 1 -5 5 h-3 z
    M22 38 h5 a5 5 0 0 1 5 5 v3 a5 5 0 0 1 -5 5 h-5 z
  " fill="white"/>
  <text x="50" y="45" font-family="'Inter', sans-serif" font-size="38" font-weight="600" fill="white" letter-spacing="0.5">Balaka</text>
</svg>
